<svg xmlns="http://www.w3.org/2000/svg" xmlns:xlink="http://www.w3.org/1999/xlink" width="17" height="17" version="1.1" viewBox="0 0 17 17"><title>Group 21</title><desc>Created with Sketch.</desc><g id="Kotsadm" fill="none" fill-rule="evenodd" stroke="none" stroke-width="1"><g id="main_spritesheet" stroke="#323232" stroke-width="1.067" transform="translate(-219.000000, -415.000000)"><g id="Group-21" transform="translate(220.000000, 416.000016)"><path id="Path" fill="#FFF" d="M6.3999,11.7751836 C6.5702,13.8311836 6.6553,14.8591836 6.6553,14.8591836 C6.6553,14.8591836 10.9581,12.9173836 11.4757,9.06528359 C8.7722,10.5607836 7.0803,11.4639836 6.3999,11.7751836 Z"/><path id="Path" fill="#FFF" d="M3.0779,8.78148359 C1.026,8.65208359 2.88657986e-14,8.58728359 2.88657986e-14,8.58728359 C2.88657986e-14,8.58728359 2.8509,3.73198359 5.9092,3.73198359 C4.1779,6.83918359 3.2341,8.52238359 3.0779,8.78148359 Z"/><path id="Path" fill="#FF6E6E" d="M12.301,7.60158359 C10.4394,9.76318359 7.5799,11.4664836 3.7397,12.7348836 L2.0427,11.0578836 C3.5195,6.92238359 5.3494,3.92998359 7.5595,2.10198359 C9.6559,0.36808359 12.0917,-0.29041641 14.8638,0.11648359 C14.9392,3.02918359 14.0889,5.52568359 12.301,7.60158359 Z"/><path id="Path" fill="#FFF" fill-rule="nonzero" d="M9.2951,7.25728359 C10.305,7.25728359 11.1237,6.43868359 11.1237,5.42878359 C11.1237,4.41888359 10.305,3.60018359 9.2951,3.60018359 C8.2852,3.60018359 7.4666,4.41888359 7.4666,5.42878359 C7.4666,6.43868359 8.2852,7.25728359 9.2951,7.25728359 Z"/><line id="Path" x1="9.565" x2="14.206" y1=".672" y2="4.862"/></g></g></g></svg>